<?xml version="1.0" encoding="UTF-8"?>
<svg id="_圖層_1" data-name="圖層 1" xmlns="http://www.w3.org/2000/svg" viewBox="0 0 510 510">
  <defs>
    <style>
      .cls-1 {
        fill: #2a324b;
        fill-rule: evenodd;
      }
    </style>
  </defs>
  <path class="cls-1" d="M347.26,129.63c-3.68-2.13-3.68-7.45,0-9.58l73.02-42.16,47.4-27.37c-22.1-23.77-51.39-40.76-84.32-47.42l-59.6,34.4-65.25,37.67c-7.02,4.05-15.67,4.05-22.69,0l-71.72-41.41c-4.2-2.42-4.2-8.48,0-10.91L203.73,0H32.7C14.64,0,0,14.64,0,32.7v444.61c0,18.06,14.64,32.7,32.7,32.7h444.61c18.06,0,32.7-14.64,32.7-32.7V157.75c0-4.31-.18-8.58-.52-12.8-.42-5.13-6.09-8.02-10.47-5.31-9.78,6.32-19.64,12.5-29.33,18.95-15.16,10.08-27.44,21.73-42.18,15.35-.94-.41-79.27-43.74-80.24-44.3M156.96,41.13l79.36,45.82c3.81,2.2,6.15,6.26,6.15,10.65v80.73s0,80.93,0,80.93c0,5.75-6.23,9.35-11.21,6.48h0s-68.92-39.79-68.92-39.79c-7.66-4.42-12.38-12.6-12.38-21.44v-79.58s0-79.74,0-79.74c0-3.59,3.89-5.84,7-4.04ZM427.5,285.15v89.47c0,2.73-1.46,5.25-3.82,6.61l-69.88,40.35-.35.2-7.25,4.19-72.97,42.13c-5.15,2.98-11.5,2.98-16.66,0l-72.97-42.13-11.22-6.47.6-.34-138.96-81.27c-5.72-3.35-5.38-11.73.6-14.59l49.09-23.5c18.57-8.89,40.32-8.15,58.24,1.99l118.39,66.96,70.41-40.66c2.62-1.51,4.23-4.31,4.23-7.33v-88.99s0-80.93,0-80.93c0-5.75,6.23-9.35,11.21-6.47h0s73.46,40.76,73.46,40.76c5.23,3.02,7.84,9.9,7.84,15.94v84.12Z"/>
</svg>